<svg width="18" height="30" viewBox="0 0 18 30" fill="none" xmlns="http://www.w3.org/2000/svg">
    <path d="M7.2 22.5C6.96131 22.5 6.73239 22.5988 6.5636 22.7746C6.39482 22.9504 6.3 23.1889 6.3 23.4375C6.3 23.6861 6.39482 23.9246 6.5636 24.1004C6.73239 24.2762 6.96131 24.375 7.2 24.375H10.8C11.0387 24.375 11.2676 24.2762 11.4364 24.1004C11.6052 23.9246 11.7 23.6861 11.7 23.4375C11.7 23.1889 11.6052 22.9504 11.4364 22.7746C11.2676 22.5988 11.0387 22.5 10.8 22.5H7.2ZM3.6 0C2.64522 0 1.72955 0.395088 1.05442 1.09835C0.379284 1.80161 0 2.75544 0 3.75V26.25C0 27.2446 0.379284 28.1984 1.05442 28.9016C1.72955 29.6049 2.64522 30 3.6 30H14.4C15.3548 30 16.2705 29.6049 16.9456 28.9016C17.6207 28.1984 18 27.2446 18 26.25V3.75C18 2.75544 17.6207 1.80161 16.9456 1.09835C16.2705 0.395088 15.3548 0 14.4 0H3.6ZM1.8 3.75C1.8 3.25272 1.98964 2.77581 2.32721 2.42417C2.66477 2.07254 3.12261 1.875 3.6 1.875H14.4C14.8774 1.875 15.3352 2.07254 15.6728 2.42417C16.0104 2.77581 16.2 3.25272 16.2 3.75V26.25C16.2 26.7473 16.0104 27.2242 15.6728 27.5758C15.3352 27.9275 14.8774 28.125 14.4 28.125H3.6C3.12261 28.125 2.66477 27.9275 2.32721 27.5758C1.98964 27.2242 1.8 26.7473 1.8 26.25V3.75Z"
          fill="#2EAA1A"/>
</svg>
