<svg width="100" height="100" viewBox="0 0 100 100" fill="none" xmlns="http://www.w3.org/2000/svg">
<circle cx="50" cy="50" r="50" fill="white"/>
<path d="M48.3012 5.8201C48.5419 5.81023 48.7222 5.74473 48.842 5.62358C48.966 5.49797 49.0228 5.30839 49.0124 5.05483C49.0025 4.81418 48.9329 4.63839 48.8035 4.52747C48.6741 4.41655 48.4805 4.36637 48.2227 4.37695L47.8359 4.39281L47.8951 5.83676L48.3012 5.8201Z" fill="#469C5F"/>
<path d="M39.5365 6.08067L40.454 5.86765L39.5488 4.05111L39.5365 6.08067Z" fill="#469C5F"/>
<path d="M34.9046 7.47264L34.0217 7.80078L33.7754 5.78618L34.9046 7.47264Z" fill="#469C5F"/>
<path d="M22.6709 11.5747C22.4228 11.7527 22.3102 11.9869 22.3333 12.2774C22.3574 12.5618 22.5298 12.9277 22.8507 13.3751C23.1716 13.8224 23.4659 14.1036 23.7336 14.2186C24.0014 14.3335 24.2575 14.3033 24.5022 14.1278C24.7538 13.9473 24.8676 13.7148 24.8435 13.4304C24.8205 13.1399 24.6472 12.7693 24.3238 12.3184C24.0005 11.8676 23.7062 11.5864 23.4409 11.4749C23.1757 11.3635 22.919 11.3967 22.6709 11.5747Z" fill="#469C5F"/>
<path d="M19.1314 15.8854L18.4427 15.1078L18.6746 14.9025C18.871 14.7285 19.04 14.6306 19.1814 14.6088C19.3201 14.5836 19.4493 14.6387 19.569 14.774C19.8086 15.0444 19.7609 15.3279 19.426 15.6245L19.1314 15.8854Z" fill="#469C5F"/>
<path d="M21.0836 16.5523C21.0315 16.7076 20.9008 16.8779 20.6915 17.0633L20.4017 17.3199L19.5976 16.4119L19.9454 16.1039C20.3318 15.7617 20.6618 15.7452 20.9356 16.0543C21.0867 16.225 21.1361 16.391 21.0836 16.5523Z" fill="#469C5F"/>
<path d="M15.5673 17.8654C15.3603 18.0899 15.2975 18.342 15.3789 18.6218C15.46 18.8955 15.703 19.2189 16.1078 19.592C16.5126 19.9652 16.8577 20.1809 17.1432 20.2393C17.4286 20.2977 17.6734 20.2162 17.8775 19.9949C18.0873 19.7672 18.1517 19.5165 18.0706 19.2428C17.9892 18.963 17.7445 18.6351 17.3365 18.2591C16.9286 17.883 16.5834 17.6672 16.3012 17.6118C16.0189 17.5563 15.7742 17.6408 15.5673 17.8654Z" fill="#469C5F"/>
<path d="M6.52774 38.8308L6.30394 39.7457L4.49818 38.8192L6.52774 38.8308Z" fill="#469C5F"/>
<path d="M5.15632 42.9652C5.19502 42.7188 5.16702 42.5228 5.07231 42.3773C4.97402 42.2269 4.79103 42.1307 4.52334 42.0886C4.0602 42.0159 3.78793 42.2388 3.70653 42.7571L3.64848 43.1268L5.09527 43.354L5.15632 42.9652Z" fill="#469C5F"/>
<path d="M3.24929 47.3955L3.29318 46.7066L6.17121 46.8899L6.07688 48.3708C5.97001 48.2217 5.83132 48.0987 5.6608 48.0017C5.48626 47.9 5.25282 47.8097 4.96047 47.7308C4.6684 47.6475 4.27505 47.5643 3.78041 47.4811L3.24929 47.3955Z" fill="#469C5F"/>
<path d="M5.84295 54.8723C6.07433 55.0102 6.23035 55.2646 6.31103 55.6357L3.69624 55.9901C3.67213 55.6201 3.75293 55.3357 3.93866 55.1369C4.12439 54.9381 4.4261 54.8104 4.84379 54.7538C5.27426 54.6954 5.60731 54.7349 5.84295 54.8723Z" fill="#469C5F"/>
<path d="M6.19429 57.4159C6.00855 57.6147 5.70685 57.7424 5.28916 57.799C4.85869 57.8573 4.52777 57.8176 4.29639 57.6797C4.06075 57.5423 3.90259 57.2882 3.82191 56.9171L6.43671 56.5627C6.46082 56.9327 6.38002 57.2171 6.19429 57.4159Z" fill="#469C5F"/>
<path d="M6.59326 61.301L6.36828 60.3864L4.56372 61.3152L6.59326 61.301Z" fill="#469C5F"/>
<path d="M60.4625 5.33173C60.3113 5.417 60.114 5.43248 59.8705 5.37818L59.4864 5.29253L59.8051 3.86312L60.1703 3.94456C60.6825 4.05877 60.8875 4.34466 60.7855 4.80224C60.7265 5.06671 60.6189 5.24321 60.4625 5.33173Z" fill="#469C5F"/>
<path d="M68.1449 8.62571L67.278 8.25739L68.4834 6.62454L68.1449 8.62571Z" fill="#469C5F"/>
<path d="M79.0975 12.8542L78.4453 13.6626L78.7516 13.9097C79.0997 14.1906 79.3872 14.1904 79.6141 13.9092C79.7275 13.7686 79.7603 13.632 79.7125 13.4995C79.6674 13.3636 79.5427 13.2133 79.3385 13.0486L79.0975 12.8542Z" fill="#469C5F"/>
<path d="M77.5434 15.3969C77.761 15.5725 77.9507 15.673 78.1125 15.6985C78.2803 15.7234 78.4358 15.6471 78.5789 15.4697C78.8382 15.1484 78.767 14.8256 78.3652 14.5016L78.0037 14.2099L77.2421 15.1539L77.5434 15.3969Z" fill="#469C5F"/>
<path d="M86.4145 19.8452C86.2189 19.6107 85.9771 19.5155 85.6891 19.5596C85.4072 19.6043 85.0548 19.803 84.632 20.1556C84.2092 20.5082 83.9502 20.8222 83.855 21.0975C83.7598 21.3729 83.8087 21.6262 84.0015 21.8575C84.1998 22.0953 84.44 22.1919 84.7219 22.1471C85.0099 22.103 85.367 21.9032 85.7931 21.5479C86.2192 21.1925 86.4782 20.8786 86.5701 20.6059C86.6619 20.3333 86.6101 20.0797 86.4145 19.8452Z" fill="#469C5F"/>
<path d="M94.762 39.5529C94.6177 39.4565 94.5148 39.2874 94.4533 39.0456L94.3564 38.6641L95.7758 38.3035L95.868 38.6662C95.9972 39.1747 95.8346 39.4867 95.3802 39.6022C95.1176 39.6689 94.9115 39.6525 94.762 39.5529Z" fill="#469C5F"/>
<path d="M63.1686 94.9093C63.4615 94.823 63.645 94.639 63.7189 94.3571C63.7899 94.0806 63.7476 93.6783 63.5921 93.1502C63.4365 92.6221 63.2513 92.2597 63.0364 92.0629C62.8215 91.8662 62.5697 91.8103 62.2808 91.8954C61.9838 91.9829 61.7998 92.1649 61.7287 92.4414C61.6548 92.7232 61.6963 93.1302 61.853 93.6625C62.0098 94.1947 62.195 94.5571 62.4087 94.7498C62.6224 94.9424 62.8757 94.9956 63.1686 94.9093Z" fill="#469C5F"/>
<path d="M58.2095 94.6908C58.3137 94.552 58.4882 94.4585 58.733 94.4104L59.1192 94.3346L59.4015 95.7716L59.0343 95.8437C58.5194 95.9449 58.2168 95.7655 58.1264 95.3054C58.0742 95.0395 58.1019 94.8347 58.2095 94.6908Z" fill="#469C5F"/>
<path d="M54.1973 95.1787L54.3331 96.5526L54.7055 96.5158C55.2234 96.4646 55.4589 96.2015 55.4119 95.7264C55.3908 95.5124 55.3146 95.3535 55.1833 95.2498C55.0482 95.1508 54.8779 95.1114 54.6724 95.1317L54.1973 95.1787Z" fill="#469C5F"/>
<path d="M37.3359 95.1364C37.63 95.2188 37.8831 95.1602 38.0954 94.9605C38.3023 94.7639 38.48 94.4005 38.6284 93.8704C38.7769 93.3402 38.8123 92.9347 38.7346 92.6539C38.6569 92.3731 38.4731 92.1921 38.1832 92.1109C37.885 92.0274 37.6324 92.084 37.4255 92.2806C37.2132 92.4802 37.0323 92.8472 36.8827 93.3815C36.7331 93.9158 36.6977 94.3212 36.7765 94.5979C36.8554 94.8746 37.0418 95.0541 37.3359 95.1364Z" fill="#469C5F"/>
<path d="M32.9628 92.2143C33.125 92.1523 33.3225 92.1661 33.5553 92.2558L33.9225 92.3973L33.396 93.7639L33.0469 93.6294C32.5572 93.4407 32.3966 93.1277 32.5652 92.6902C32.6626 92.4374 32.7951 92.2787 32.9628 92.2143Z" fill="#469C5F"/>
<path d="M26.9119 87.5555C27.0784 87.5192 27.2653 87.5624 27.4725 87.6852L27.8222 87.8924L27.0855 89.1357L26.7524 88.9383C26.5304 88.8068 26.3954 88.6592 26.3473 88.4957C26.2992 88.3322 26.3365 88.1469 26.4593 87.9397C26.5886 87.7214 26.7395 87.5933 26.9119 87.5555Z" fill="#469C5F"/>
<path d="M19.3729 85.178C19.0947 85.2647 18.8414 85.2067 18.613 85.0041C18.3845 84.8014 18.2954 84.5584 18.3455 84.2751C18.3956 83.9918 18.6047 83.6427 18.9729 83.2276C19.3412 82.8126 19.6643 82.5617 19.9425 82.475C20.2146 82.3886 20.4665 82.4482 20.6981 82.6538C20.9233 82.8536 21.0095 83.0967 20.9565 83.3832C20.9036 83.6698 20.6944 84.0189 20.3291 84.4307C19.9637 84.8426 19.645 85.0917 19.3729 85.178Z" fill="#469C5F"/>
<path d="M13.2365 78.8318C12.947 78.8653 12.7089 78.7613 12.5221 78.5197C12.3353 78.2782 12.2928 78.0229 12.3947 77.7538C12.4965 77.4847 12.7669 77.1805 13.2058 76.8411C13.6447 76.5017 14.0089 76.3152 14.2983 76.2817C14.5817 76.2474 14.8182 76.3528 15.0076 76.5977C15.1918 76.8359 15.2312 77.0908 15.126 77.3625C15.0207 77.6342 14.7503 77.9384 14.3148 78.2752C13.8793 78.612 13.5199 78.7975 13.2365 78.8318Z" fill="#469C5F"/>
<path fill-rule="evenodd" clip-rule="evenodd" d="M93.294 74.9958C107.099 51.0852 98.9065 20.5108 74.9958 6.70596C51.0852 -7.09886 20.5108 1.09354 6.70596 25.0042C-7.09885 48.9148 1.09353 79.4892 25.0042 93.294C48.9148 107.099 79.4892 98.9065 93.294 74.9958ZM48.2828 3.63838C48.85 3.61512 49.2912 3.71756 49.6062 3.9457C49.9253 4.16937 50.0946 4.51971 50.1142 4.99673C50.1348 5.49954 49.9913 5.88423 49.6837 6.15083C49.3761 6.41742 48.9558 6.56164 48.4229 6.5835L46.8694 6.64722L46.6862 2.18L47.7434 2.13665L47.8058 3.65795L48.2828 3.63838ZM45.9073 6.72109L45.3012 2.29141L42.4503 2.68151L42.4889 4.96185C42.4974 5.3731 42.495 5.67296 42.4817 5.86145C42.4679 6.04567 42.4299 6.1963 42.3678 6.31333C42.3056 6.43036 42.2019 6.5292 42.0567 6.60985L42.4066 7.31083C42.7168 7.19891 42.9501 7.04761 43.1063 6.85693C43.2626 6.66624 43.3653 6.41776 43.4146 6.11148C43.4681 5.80462 43.49 5.39356 43.4802 4.87829L43.4409 3.35342L44.3613 3.22747L44.859 6.86454L45.9073 6.72109ZM41.2473 7.45852L40.8036 6.57465L39.5342 6.86937L39.5316 7.85682L38.4632 8.10485L38.7656 3.44478L40.0162 3.15444L42.3408 7.20465L41.2473 7.45852ZM35.3414 8.12936L35.894 8.94952L36.9463 8.55845L34.1248 4.83728L32.9214 5.28454L33.215 9.94517L34.243 9.56309L34.1198 8.58336L35.3414 8.12936ZM30.9821 6.05847L31.2389 6.83662L30.2431 7.31157L31.818 10.6133L30.863 11.0688L29.2881 7.76708L28.2458 8.26425L27.8958 7.53053L30.9821 6.05847ZM27.8013 12.7477L26.0013 9.83288L25.134 10.3685L26.934 13.2833L27.8013 12.7477ZM24.4133 8.95581C24.2771 8.92361 24.1469 8.94594 24.0224 9.02277C23.898 9.09961 23.8197 9.2061 23.7875 9.34225C23.7517 9.48065 23.771 9.61024 23.8456 9.731C23.9202 9.85177 24.0274 9.92712 24.1672 9.95705C24.3033 9.98924 24.4336 9.96692 24.558 9.89008C24.6824 9.81324 24.7608 9.70675 24.7929 9.57061C24.8288 9.4322 24.8094 9.30261 24.7349 9.18185C24.6603 9.06108 24.5531 8.98574 24.4133 8.95581ZM25.6868 8.16936C25.5506 8.13717 25.4185 8.16062 25.2905 8.23972C25.1697 8.3143 25.0914 8.42079 25.0555 8.5592C25.0233 8.69534 25.0445 8.8238 25.1191 8.94456C25.1937 9.06533 25.299 9.1418 25.4352 9.174C25.575 9.20393 25.7053 9.1816 25.826 9.10703C25.9541 9.02793 26.0343 8.92031 26.0665 8.78416C26.0986 8.64802 26.0775 8.51956 26.0029 8.3988C25.9283 8.27803 25.8229 8.20156 25.6868 8.16936ZM22.2197 10.9456C22.7369 10.5746 23.2579 10.4523 23.7826 10.5788C24.3109 10.7027 24.7919 11.067 25.2255 11.6717C25.5088 12.0666 25.6868 12.455 25.7596 12.8368C25.8358 13.2162 25.8051 13.5717 25.6672 13.9035C25.5304 14.2293 25.2924 14.5137 24.9534 14.7569C24.6144 15.0001 24.2687 15.1342 23.9162 15.1594C23.5638 15.1846 23.2196 15.1033 22.8838 14.9155C22.5489 14.7217 22.2373 14.4238 21.949 14.0219C21.6682 13.6304 21.4897 13.245 21.4135 12.8657C21.3407 12.4838 21.3728 12.13 21.5096 11.8043C21.644 11.475 21.8806 11.1888 22.2197 10.9456ZM21.0902 15.0125C20.8434 15.0128 20.5904 15.0903 20.3311 15.2452C20.4679 15.0494 20.5415 14.8406 20.5519 14.6188C20.5627 14.3909 20.4811 14.1788 20.3072 13.9824C20.0392 13.6797 19.7227 13.5721 19.3579 13.6597C18.9902 13.744 18.5713 13.9943 18.1011 14.4107L17.1545 15.249L20.1186 18.5961L21.1957 17.6423C21.6562 17.2345 21.9494 16.8456 22.0755 16.4754C22.2019 16.0992 22.1068 15.7323 21.7903 15.3749C21.5736 15.1302 21.3402 15.0094 21.0902 15.0125ZM14.998 17.3406C15.4294 16.8726 15.9149 16.6474 16.4544 16.665C16.9968 16.6794 17.5415 16.9388 18.0886 17.4431C18.446 17.7725 18.699 18.1168 18.8475 18.4761C18.999 18.8321 19.0408 19.1865 18.973 19.5393C18.9049 19.8861 18.7295 20.2128 18.4467 20.5196C18.1639 20.8263 17.8525 21.0277 17.5125 21.1238C17.1724 21.2198 16.819 21.2098 16.452 21.0939C16.0848 20.9718 15.7194 20.7432 15.3557 20.408C15.0015 20.0815 14.7487 19.7402 14.5972 19.3841C14.4487 19.0249 14.4084 18.672 14.4765 18.3252C14.5414 17.9756 14.7152 17.6474 14.998 17.3406ZM16.5531 22.502L12.9794 19.8153L11.2503 22.1153L12.8975 23.6926C13.1957 23.976 13.4071 24.1887 13.5316 24.3308C13.6528 24.4703 13.7331 24.6032 13.7725 24.7297C13.8119 24.8562 13.8092 24.9995 13.7642 25.1594L14.5085 25.4041C14.6473 25.1049 14.704 24.8327 14.6784 24.5876C14.6529 24.3424 14.5487 24.0945 14.3657 23.844C14.1854 23.59 13.9088 23.2852 13.5358 22.9295L12.4248 21.8843L12.983 21.1417L15.9173 23.3477L16.5531 22.502ZM10.218 23.6165L14.0399 25.9365L13.4909 26.841L10.3638 24.9428L9.67421 26.0789L12.8012 27.9771L12.2522 28.8815L8.43028 26.5615L10.218 23.6165ZM8.4551 28.1595L7.82502 27.7296L6.62141 30.1932L10.6386 32.1558L11.8422 29.6922L11.1582 29.358L10.419 30.871L9.39299 30.3697L9.99621 29.135L9.32958 28.8093L8.72636 30.044L7.76409 29.5739L8.4551 28.1595ZM6.15034 31.2774L6.87198 31.6656L6.47589 32.6953L9.89005 34.0086L9.51017 34.9962L6.09601 33.6828L5.68138 34.7606L4.92268 34.4688L6.15034 31.2774ZM7.31642 38.8377L8.30536 38.8405L8.57209 37.7501L3.90878 37.9975L3.60373 39.2446L7.62629 41.6167L7.88688 40.5513L7.00677 40.1036L7.31642 38.8377ZM2.96283 42.6273C3.05424 42.0452 3.2464 41.6117 3.5393 41.3268C3.8322 41.0419 4.2166 40.9368 4.69248 41.0115C5.18962 41.0896 5.54063 41.308 5.74553 41.6667C5.94685 42.0205 6.00581 42.4629 5.92241 42.9941L5.84734 43.4721L7.31963 43.7033L7.15549 44.7485L2.73865 44.055L2.96283 42.6273ZM8.13507 45.5928L6.26145 45.4734L6.23643 45.8662L2.57932 45.6332L2.41363 48.2344L3.80616 48.4977C4.32116 48.5994 4.71652 48.6849 4.99225 48.7542C5.26824 48.8192 5.48588 48.8869 5.64517 48.9574C5.80043 49.0233 5.9267 49.1047 6.02397 49.2014L6.00305 49.5297L7.87668 49.6491L7.92343 48.9151L6.86201 48.7311L7.01213 46.3746L8.08831 46.3268L8.13507 45.5928ZM2.38943 50.2127L3.14717 50.3001L3.19346 51.8736L4.26397 51.8421L4.22355 50.4685L4.96517 50.4467L5.00558 51.8203L6.14702 51.7867L6.0975 50.1036L6.85846 50.0812L6.9391 52.8219L2.47007 52.9534L2.38943 50.2127ZM6.2193 54.0465C5.84511 53.7196 5.33836 53.5995 4.69905 53.6861C4.07678 53.7705 3.63067 54.0176 3.3607 54.4275C3.09073 54.8374 2.98532 55.3725 3.04447 56.0329L2.5522 56.0997L2.69 57.1162L3.18227 57.0494C3.29625 57.6981 3.54033 58.1858 3.91452 58.5127C4.28813 58.8353 4.79459 58.9533 5.4339 58.8666C6.05616 58.7823 6.50228 58.5352 6.77225 58.1253C7.04221 57.7154 7.14762 57.1803 7.08848 56.5199L7.61911 56.4479L7.4813 55.4314L6.95067 55.5034C6.8367 54.8547 6.59291 54.3691 6.2193 54.0465ZM7.94865 59.5724L7.07065 60.0276L7.38193 61.2931L8.36933 61.2827L8.63129 62.3478L3.96767 62.1063L3.66102 60.8596L7.68052 58.4823L7.94865 59.5724ZM4.53704 64.1697L6.81221 64.55L8.72224 62.5921L9.0998 63.6835L7.57886 65.2269L7.73072 65.6659L9.56594 65.031L9.91186 66.0309L5.68658 67.4926L5.34067 66.4927L6.99907 65.919L6.83877 65.4556L4.87663 65.1513L4.53704 64.1697ZM53.6967 3.01226L53.8367 2.20488L50.4209 2.04952L50.384 2.86158L51.5376 2.91406L51.3714 6.56834L52.4284 6.61642L52.5946 2.96213L53.6967 3.01226ZM57.5836 2.6642L57.3763 3.39825L55.8156 3.19263L55.6757 4.25442L57.0381 4.43392L56.9412 5.16949L55.5788 4.99L55.4296 6.12215L57.0991 6.3421L56.9996 7.09686L54.2812 6.73872L54.8652 2.30606L57.5836 2.6642ZM61.6084 3.86865C61.3427 3.55822 60.9223 3.33888 60.3472 3.21063L58.9367 2.89609L57.9636 7.25988L58.9963 7.49016L59.3207 6.03557L59.7929 6.14088C60.3177 6.2579 60.763 6.2272 61.1289 6.04879C61.4999 5.86713 61.7402 5.53071 61.8497 5.03955C61.9545 4.56938 61.8741 4.17907 61.6084 3.86865ZM63.8499 8.81557L64.4358 6.99125L63.1582 6.58086L62.5722 8.40519L61.5648 8.08162L62.9321 3.82485L63.9395 4.14842L63.4107 5.79462L64.6884 6.205L65.2171 4.55881L66.2245 4.88238L64.8572 9.13914L63.8499 8.81557ZM68.011 9.40296L67.8488 10.3785L68.882 10.8175L69.3893 6.17525L68.2076 5.67322L65.2183 9.26096L66.2278 9.68983L66.8115 8.89337L68.011 9.40296ZM73.8722 8.41574L73.4017 9.08662L72.4259 8.57199L70.7195 11.8077L69.7836 11.3141L71.49 8.07842L70.4685 7.53972L70.8477 6.82068L73.8722 8.41574ZM74.3494 14.0058L75.2182 14.5751L77.6683 10.8352L76.6214 10.1493L73.6521 12.2918C73.8673 12.0575 74.0505 11.8484 74.2017 11.6647C74.353 11.481 74.5264 11.2398 74.722 10.9412L75.6554 9.51646L74.7865 8.94724L72.3364 12.6871L73.3996 13.3836L76.3544 11.2162C75.9652 11.6297 75.6021 12.0936 75.2651 12.6081L74.3494 14.0058ZM79.2761 14.7391C79.472 14.9689 79.5906 15.2055 79.6319 15.4489C79.6766 15.6949 79.5963 15.9451 79.391 16.1995C79.0913 16.5711 78.7454 16.7258 78.3533 16.6638C77.9673 16.6011 77.535 16.3766 77.0563 15.9904L75.9366 15.0871L78.7439 11.6073L79.7281 12.4013C80.2168 12.7956 80.5333 13.167 80.6777 13.5156C80.8247 13.8608 80.7713 14.1907 80.5174 14.5054C80.3527 14.7096 80.1571 14.8253 79.9306 14.8526C79.7102 14.8792 79.492 14.8414 79.2761 14.7391ZM82.3352 18.1509L80.9895 19.5149L81.7427 20.258L84.8827 17.0752L84.1294 16.3321L82.9151 17.563L81.9598 16.6206L83.1741 15.3897L82.4209 14.6466L79.281 17.8294L80.0342 18.5725L81.3799 17.2085L82.3352 18.1509ZM87.0091 19.3494C87.4168 19.8382 87.5766 20.3489 87.4887 20.8815C87.4035 21.4174 87.0752 21.9236 86.5038 22.4001C86.1305 22.7114 85.7561 22.9172 85.3806 23.0176C85.0078 23.1212 84.6509 23.1164 84.31 23.0031C83.9752 22.8903 83.6741 22.6737 83.4069 22.3533C83.1397 22.0329 82.9807 21.6978 82.9299 21.3482C82.8792 20.9985 82.9352 20.6493 83.0981 20.3007C83.267 19.9526 83.5414 19.6201 83.9213 19.3034C84.2913 18.9948 84.6626 18.7887 85.0354 18.6851C85.411 18.5847 85.7662 18.5909 86.101 18.7037C86.4392 18.8137 86.7419 19.0289 87.0091 19.3494ZM85.6927 25.165L89.3225 22.5546L88.7047 21.6956L85.075 24.3061L85.6927 25.165ZM89.8785 21.0183C89.9011 20.8802 89.8697 20.7519 89.7843 20.6331C89.6989 20.5144 89.5872 20.4438 89.4491 20.4212C89.3085 20.3952 89.1806 20.4236 89.0654 20.5065C88.9501 20.5893 88.8825 20.7015 88.8625 20.8431C88.8399 20.9812 88.8713 21.1096 88.9567 21.2283C89.0421 21.347 89.1538 21.4177 89.2919 21.4402C89.4325 21.4663 89.5604 21.4378 89.6756 21.355C89.7908 21.2721 89.8585 21.1599 89.8785 21.0183ZM90.7524 22.2335C90.775 22.0954 90.7423 21.9653 90.6544 21.843C90.5715 21.7278 90.4598 21.6572 90.3192 21.6311C90.1812 21.6086 90.0545 21.6387 89.9393 21.7216C89.8241 21.8045 89.7552 21.915 89.7326 22.053C89.7126 22.1946 89.744 22.323 89.8269 22.4382C89.9147 22.5604 90.0277 22.6328 90.1658 22.6554C90.3039 22.6779 90.4305 22.6478 90.5458 22.5649C90.661 22.482 90.7299 22.3715 90.7524 22.2335ZM92.3764 27.5076L91.666 27.7854L90.8879 26.417L89.9569 26.9464L90.6362 28.141L89.9912 28.5077L89.3119 27.3132L88.3193 27.8776L89.1516 29.3414L88.4899 29.7177L87.1345 27.3342L91.021 25.1241L92.3764 27.5076ZM91.6759 31.9533L89.9303 32.7436L90.3668 33.7075L94.4397 31.8633L94.0032 30.8995L92.4281 31.6126L91.8746 30.3902L93.4497 29.677L93.0133 28.7131L88.9404 30.5573L89.3768 31.5212L91.1223 30.7308L91.6759 31.9533ZM95.8617 35.8119L95.1125 35.955L94.5978 34.4673L93.5857 34.8175L94.035 36.1162L93.3338 36.3587L92.8845 35.06L91.8054 35.4334L92.3559 37.0247L91.6364 37.2736L90.74 34.6824L94.9652 33.2206L95.8617 35.8119ZM96.5847 39.9152C96.7419 39.538 96.7479 39.0639 96.6028 38.4928L96.2469 37.0921L91.9136 38.1931L92.1741 39.2186L93.6186 38.8516L93.7377 39.3206C93.8701 39.8417 94.0985 40.2252 94.4228 40.4712C94.7524 40.7203 95.161 40.7829 95.6487 40.6589C96.1156 40.5403 96.4276 40.2924 96.5847 39.9152ZM97.6683 43.9216L96.8282 43.9406L96.5568 42.2722L92.9653 42.8565L92.7954 41.8121L97.2084 41.0943L97.6683 43.9216ZM97.2644 47.7795L98.0255 47.8299L97.8114 45.0963L93.3541 45.4455L93.5682 48.179L94.3272 48.1196L94.1957 46.4409L95.3341 46.3517L95.4415 47.7217L96.1811 47.6637L96.0738 46.2938L97.1415 46.2101L97.2644 47.7795ZM98.0544 52.2381L97.2424 52.1284L97.2511 51.0252L93.5932 50.9963L93.6015 49.9382L97.2595 49.9672L97.2686 48.8124L98.0815 48.8188L98.0544 52.2381ZM93.3158 55.2298L93.2115 56.2633L97.6599 56.7122L97.7856 55.4669L94.515 53.8205C94.8222 53.9034 95.0922 53.9695 95.325 54.019C95.5577 54.0684 95.8517 54.111 96.2069 54.1469L97.9015 54.3179L98.0058 53.2844L93.5574 52.8355L93.4298 54.1001L96.7159 55.7221C96.1695 55.5675 95.5903 55.4593 94.9784 55.3976L93.3158 55.2298ZM96.7722 61.4596L95.0055 59.9764L92.3658 60.6928L92.5949 59.5609L94.6889 59.004L94.7811 58.5487L92.8778 58.1634L93.0877 57.1264L97.4698 58.0134L97.2598 59.0504L95.5399 58.7023L95.4426 59.1829L96.9783 60.4416L96.7722 61.4596ZM91.4923 63.6379L91.1871 64.6308L95.4608 65.9442L95.8285 64.7478L92.9448 62.4914C93.2298 62.633 93.4815 62.7509 93.7 62.845C93.9186 62.9392 94.1985 63.0387 94.5397 63.1436L96.1678 63.644L96.4729 62.6511L92.1992 61.3376L91.8259 62.5525L94.7295 64.788C94.2241 64.5292 93.6774 64.3095 93.0895 64.1288L91.4923 63.6379ZM87.1225 79.5619L86.1484 77.471L83.4533 77.0043L84.1394 76.0754L86.2726 76.4558L86.5486 76.0822L84.9865 74.9285L85.6151 74.0774L89.2115 76.7336L88.5829 77.5847L87.1713 76.5422L86.88 76.9366L87.7396 78.7264L87.1225 79.5619ZM80.7188 80.0752L84.0316 83.0777L86.3452 80.525L83.0325 77.5225L82.3219 78.3065L85.0324 80.7631L84.1398 81.7478L81.4294 79.2912L80.7188 80.0752ZM82.2519 84.7865L79.1733 81.5443L79.9406 80.8157L83.0191 84.058L82.2519 84.7865ZM76.5351 83.7971L78.6791 86.4691L79.4742 85.8311L77.3301 83.1592L76.5351 83.7971ZM79.7701 87.6947C79.9273 87.7119 80.0747 87.6653 80.2122 87.555C80.3498 87.4446 80.4272 87.3108 80.4444 87.1536C80.4643 86.9998 80.4218 86.8574 80.3168 86.7266C80.2118 86.5958 80.0807 86.5217 79.9235 86.5045C79.769 86.4906 79.623 86.5389 79.4855 86.6492C79.3479 86.7596 79.2692 86.8917 79.2493 87.0456C79.2287 87.2055 79.2709 87.3508 79.3759 87.4816C79.4808 87.6125 79.6123 87.6835 79.7701 87.6947ZM72.8453 86.4421L73.642 85.8927L74.4015 86.858C74.5307 87.0301 74.6221 87.1552 74.6758 87.2331C74.7955 87.4066 74.9465 87.6446 75.129 87.9472L74.3443 85.8316L75.0401 85.3519L76.7188 86.8432C76.5741 86.6713 76.42 86.4667 76.2564 86.2294C76.1905 86.1338 76.0927 85.9844 75.9631 85.7813L75.3151 84.7391L76.1065 84.1935L77.8121 87.1786L76.8242 87.8598L75.184 86.3106L76.0381 88.4018L75.0342 89.094L72.8453 86.4421ZM72.0093 87.9333C72.1645 87.9769 72.3107 87.9584 72.448 87.8778C72.589 87.7952 72.6801 87.6743 72.7215 87.5154C72.7614 87.3624 72.7411 87.2172 72.6606 87.0799C72.5779 86.939 72.4589 86.8467 72.3037 86.8031C72.1469 86.7654 71.9981 86.7879 71.8571 86.8706C71.7198 86.9512 71.6313 87.0679 71.5914 87.221C71.55 87.3799 71.5706 87.5299 71.6533 87.6708C71.7339 87.8081 71.8525 87.8956 72.0093 87.9333ZM69.9711 93.0411L68.0448 89.0064L68.9996 88.5506L70.9259 92.5853L69.9711 93.0411ZM66.094 93.7713L66.2944 94.5874L68.9552 93.5263L67.2991 89.3734L66.3163 89.7653L67.6641 93.1452L66.094 93.7713ZM63.3874 95.6519C62.7767 95.8318 62.2445 95.7756 61.7908 95.4833C61.3329 95.1922 60.9988 94.6898 60.7886 93.976C60.6512 93.5098 60.6111 93.0844 60.6683 92.6999C60.7213 92.3167 60.8675 91.9911 61.107 91.7233C61.3435 91.4608 61.6619 91.2706 62.0621 91.1527C62.4623 91.0349 62.8329 91.0221 63.174 91.1144C63.5151 91.2068 63.8132 91.3969 64.0684 91.685C64.3207 91.9783 64.5168 92.3622 64.6565 92.8367C64.7926 93.2988 64.8342 93.7215 64.7812 94.1048C64.7241 94.4893 64.5772 94.8127 64.3407 95.0752C64.1053 95.3418 63.7876 95.5341 63.3874 95.6519ZM57.7478 96.491C58.1159 96.6685 58.589 96.7005 59.1672 96.5869L60.5852 96.3083L59.7234 91.9212L58.6851 92.1252L58.9724 93.5876L58.4976 93.6808C57.9701 93.7845 57.5746 93.9915 57.3112 94.3018C57.0444 94.6172 56.9595 95.0218 57.0565 95.5156C57.1494 95.9883 57.3798 96.3134 57.7478 96.491ZM53.3532 97.395L52.9134 92.9457L53.9663 92.8417L54.125 94.4467L54.645 94.3953L55.2311 92.7166L56.3868 92.6024L55.6072 94.4883C55.8793 94.5737 56.0917 94.7105 56.2442 94.8985C56.3925 95.087 56.4819 95.3353 56.5124 95.6435C56.6063 96.5937 56.0455 97.1289 54.8299 97.2491L53.3532 97.395ZM47.188 97.4279C47.3999 97.5175 47.6456 97.5675 47.9249 97.5779C48.3161 97.5924 48.6698 97.5129 48.9861 97.3396C49.298 97.1704 49.5485 96.9128 49.7378 96.5669C49.9228 96.2208 50.0243 95.805 50.0423 95.3193C50.0608 94.8207 49.9929 94.3899 49.8385 94.027C49.6796 93.6681 49.4509 93.3928 49.1525 93.201C48.854 93.0091 48.4984 92.9056 48.0858 92.8903C47.7978 92.8796 47.5337 92.9236 47.2933 93.0223C47.0486 93.1208 46.8393 93.2508 46.6655 93.4122L47.1137 94.0357C47.2727 93.9254 47.42 93.8405 47.5557 93.7809C47.6912 93.7257 47.8406 93.7011 48.0039 93.7072C48.3134 93.7186 48.5516 93.8523 48.7186 94.1081C48.8811 94.3681 48.9527 94.7581 48.9334 95.2782C48.9138 95.8068 48.8133 96.1948 48.632 96.442C48.4464 96.689 48.2032 96.807 47.9023 96.7958C47.7561 96.7904 47.6196 96.7595 47.4925 96.7032C47.3655 96.6468 47.2373 96.5646 47.1079 96.4565L46.5827 97.0374C46.7701 97.2079 46.9719 97.3381 47.188 97.4279ZM44.4705 97.2013L44.9347 92.7545L45.987 92.8643L45.5228 97.3111L44.4705 97.2013ZM41.5023 94.7072L40.0647 96.5112L41.0877 96.6912L42.3067 95.1238L42.7896 95.2088L42.4856 96.9371L43.5276 97.1204L44.3023 92.7171L43.2603 92.5338L42.9238 94.4463L42.4663 94.3658L41.856 92.2867L40.7187 92.0866L41.5023 94.7072ZM37.1271 95.882C36.5142 95.7103 36.093 95.3802 35.8635 94.8916C35.6299 94.4019 35.6135 93.7987 35.8141 93.0822C35.9452 92.6142 36.137 92.2324 36.3895 91.9369C36.6378 91.6402 36.9345 91.4419 37.2796 91.342C37.6194 91.2451 37.9902 91.2529 38.392 91.3654C38.7937 91.4779 39.1146 91.6638 39.3546 91.9231C39.5947 92.1824 39.7464 92.5018 39.8099 92.8813C39.868 93.2639 39.8304 93.6933 39.697 94.1696C39.5671 94.6335 39.378 95.0137 39.1296 95.3105C38.8771 95.606 38.581 95.8022 38.2412 95.8991C37.9002 96.0002 37.5289 95.9945 37.1271 95.882ZM31.6133 93.492C31.8302 93.8382 32.2136 94.1173 32.7635 94.3291L34.112 94.8486L35.7192 90.6765L34.7319 90.2962L34.1962 91.6869L33.7446 91.5129C33.2429 91.3197 32.798 91.2842 32.4098 91.4066C32.016 91.5315 31.7286 91.8287 31.5477 92.2983C31.3746 92.7478 31.3964 93.1457 31.6133 93.492ZM28.725 92.6873C28.4734 92.5654 28.2687 92.4208 28.1108 92.2534C27.9491 92.0842 27.8167 91.8839 27.7138 91.6524L28.4284 91.3319C28.5033 91.483 28.5876 91.6098 28.6812 91.7126C28.7748 91.8153 28.8874 91.8985 29.019 91.9623C29.29 92.0936 29.5601 92.0835 29.8295 91.9321C30.0949 91.7787 30.3431 91.464 30.5738 90.988C30.8007 90.5196 30.8921 90.1338 30.848 89.8304C30.7981 89.529 30.6338 89.3108 30.3551 89.1757C30.208 89.1044 30.0614 89.0668 29.9151 89.0629C29.767 89.0628 29.598 89.0812 29.408 89.1182L29.2486 88.367C29.4727 88.2893 29.7166 88.2545 29.9803 88.2628C30.24 88.2692 30.4996 88.3352 30.7589 88.4609C31.1305 88.641 31.4143 88.8789 31.6103 89.1746C31.8063 89.4703 31.9048 89.8144 31.9058 90.2068C31.9011 90.6012 31.7899 91.0229 31.5724 91.4719C31.3604 91.9093 31.1001 92.2491 30.7915 92.4915C30.479 92.732 30.1459 92.8669 29.7923 92.8963C29.433 92.9277 29.0772 92.858 28.725 92.6873ZM25.3573 88.5465C25.4972 88.9094 25.8114 89.2356 26.2998 89.525L26.7105 89.7684L25.9343 91.0783L26.8446 91.6177L29.1238 87.7713L27.7862 86.9786C27.3274 86.7068 26.8964 86.5988 26.4932 86.6549C26.09 86.711 25.7601 86.9554 25.5036 87.3884C25.2602 87.7991 25.2114 88.1852 25.3573 88.5465ZM20.5235 87.4752L22.6048 86.4804L23.0448 83.7809L23.9804 84.4577L23.6211 86.5946L23.9974 86.8668L25.1357 85.2934L25.9929 85.9136L23.3723 89.5361L22.5151 88.9159L23.5436 87.4941L23.1464 87.2067L21.3651 88.084L20.5235 87.4752ZM17.3959 84.14C17.3886 84.6797 17.623 85.1607 18.0992 85.5832C18.4113 85.8601 18.7427 86.0276 19.0935 86.0859C19.4415 86.1473 19.7936 86.1004 20.15 85.945C20.5031 85.7868 20.8395 85.5275 21.1592 85.1672C21.4874 84.7972 21.709 84.4275 21.8241 84.058C21.933 83.6889 21.9362 83.3353 21.8338 82.9972C21.7313 82.659 21.524 82.3515 21.2119 82.0746C20.8998 81.7978 20.5698 81.6286 20.2218 81.5671C19.8678 81.506 19.5143 81.5546 19.1611 81.7128C18.8048 81.8682 18.4654 82.1276 18.1428 82.4912C17.649 83.0478 17.4001 83.5974 17.3959 84.14ZM14.0134 81.3808L14.7005 80.897L15.8553 82.1313L18.5124 79.6453L19.2353 80.4179L15.9705 83.4726L14.0134 81.3808ZM11.4868 77.4446C11.3793 77.9735 11.5203 78.4898 11.9097 78.9933C12.1649 79.3234 12.4594 79.5496 12.7933 79.672C13.1238 79.797 13.4785 79.8163 13.8575 79.7299C14.2339 79.64 14.6126 79.4477 14.9937 79.1531C15.3849 78.8505 15.6714 78.5284 15.8531 78.1867C16.0287 77.8443 16.0975 77.4975 16.0597 77.1461C16.0218 76.7948 15.8753 76.4542 15.62 76.1241C15.3648 75.7941 15.072 75.5666 14.7415 75.4415C14.405 75.3157 14.0485 75.2978 13.6722 75.3876C13.2932 75.4741 12.9115 75.6659 12.527 75.9633C11.9384 76.4184 11.5917 76.9122 11.4868 77.4446ZM70.7817 13.7706C90.7432 25.2954 97.5826 50.8201 86.0578 70.7816C74.533 90.7431 49.0083 97.5825 29.0468 86.0577C9.08525 74.5329 2.24593 49.0082 13.7707 29.0467C25.2955 9.08516 50.8202 2.24584 70.7817 13.7706Z" fill="#469C5F"/>
<path d="M60.9367 20.1499C60.2341 19.7239 59.356 20.2564 59.356 21.1084V29.5372C59.356 29.5748 59.3577 29.6119 59.361 29.6483C59.3121 30.7887 59.5625 31.9568 60.1463 33.0188C61.6959 35.8377 65.0363 36.8936 67.7868 35.5166C67.7461 35.3302 67.7135 35.142 67.6892 34.9526C67.2029 33.9157 66.2445 32.1107 64.7314 29.8666C64.3951 29.3677 64.5075 28.677 64.9824 28.3237C65.4574 27.9705 66.1151 28.0885 66.4515 28.5874C67.1488 29.6217 67.7392 30.5756 68.2282 31.4195C68.3956 31.0586 68.599 30.7095 68.8391 30.3777C69.4305 29.5605 70.1776 28.9408 71.0038 28.5296C70.8753 27.9451 70.6631 27.3704 70.3627 26.8239C69.7788 25.7617 68.9406 24.9498 67.9755 24.4241C67.9473 24.403 67.9178 24.383 67.8869 24.3643L60.9367 20.1499Z" fill="url(#paint0_linear_407_380)"/>
<path d="M79.8286 25.4411C80.5766 25.1114 81.3839 25.7559 81.2817 26.6011L80.2705 34.9627C80.266 34.9999 80.2599 35.0362 80.2523 35.0717C80.1641 36.2097 79.7756 37.3356 79.0689 38.312C77.4192 40.5914 74.5586 41.3343 72.1491 40.3027C73.02 37.8138 74.1391 36.1336 74.8064 35.4195C75.2141 34.9833 75.2079 34.2825 74.7925 33.8544C74.3771 33.4262 73.7099 33.4327 73.3022 33.869C72.4719 34.7575 71.2852 36.5445 70.3366 39.0812C68.1562 36.9377 67.8305 33.366 69.6771 30.8145C70.3836 29.8383 71.3123 29.1438 72.3326 28.75C72.3632 28.7327 72.3951 28.7167 72.4282 28.7021L79.8286 25.4411Z" fill="url(#paint1_linear_407_380)"/>
<path d="M70.3366 39.0812C69.4591 41.4273 68.7853 44.4147 68.7853 47.9255C68.7853 48.5367 69.2571 49.0323 69.8391 49.0323C70.4211 49.0323 70.8929 48.5367 70.8929 47.9255C70.8929 44.9031 71.4384 42.3336 72.1491 40.3027C71.6794 40.1015 71.2268 39.833 70.8036 39.4952C70.6395 39.3642 70.4838 39.2259 70.3366 39.0812Z" fill="url(#paint2_linear_407_380)"/>
<path d="M27.4196 21.9355C27.9801 21.9355 28.4345 22.3899 28.4345 22.9504V27.6869C28.4345 28.2474 27.9801 28.7018 27.4196 28.7018C26.859 28.7018 26.4046 28.2474 26.4046 27.6869V22.9504C26.4046 22.3899 26.859 21.9355 27.4196 21.9355Z" fill="url(#paint3_linear_407_380)"/>
<path d="M27.4196 40.8812C24.6168 40.8812 22.3448 38.6092 22.3448 35.8065C22.3448 33.0037 24.6168 30.7317 27.4196 30.7317C30.2223 30.7317 32.4943 33.0037 32.4943 35.8065C32.4943 38.6092 30.2223 40.8812 27.4196 40.8812Z" fill="url(#paint4_linear_407_380)"/>
<path d="M13.5486 35.8065C13.5486 35.2459 14.003 34.7915 14.5635 34.7915H19.3C19.8605 34.7915 20.3149 35.2459 20.3149 35.8065C20.3149 36.367 19.8605 36.8214 19.3 36.8214H14.5635C14.003 36.8214 13.5486 36.367 13.5486 35.8065Z" fill="url(#paint5_linear_407_380)"/>
<path d="M27.4196 42.9111C27.9801 42.9111 28.4345 43.3655 28.4345 43.926V48.6625C28.4345 49.223 27.9801 49.6774 27.4196 49.6774C26.859 49.6774 26.4046 49.223 26.4046 48.6625V43.926C26.4046 43.3655 26.859 42.9111 27.4196 42.9111Z" fill="url(#paint6_linear_407_380)"/>
<path d="M32.4433 40.8302C32.8397 40.4339 33.4823 40.4339 33.8787 40.8302L35.7925 42.744C36.1888 43.1404 36.1888 43.783 35.7925 44.1794C35.3961 44.5758 34.7535 44.5758 34.3571 44.1794L32.4433 42.2656C32.0469 41.8692 32.0469 41.2266 32.4433 40.8302Z" fill="url(#paint7_linear_407_380)"/>
<path d="M22.3958 30.7387C21.9994 31.1351 21.3568 31.1351 20.9605 30.7387L19.0466 28.8249C18.6503 28.4286 18.6503 27.7859 19.0466 27.3896C19.443 26.9932 20.0856 26.9932 20.482 27.3896L22.3958 29.3034C22.7922 29.6997 22.7922 30.3424 22.3958 30.7387Z" fill="url(#paint8_linear_407_380)"/>
<path d="M34.5242 35.8065C34.5242 35.2459 34.9786 34.7915 35.5391 34.7915H40.2756C40.8361 34.7915 41.2905 35.2459 41.2905 35.8065C41.2905 36.367 40.8361 36.8214 40.2756 36.8214H35.5391C34.9786 36.8214 34.5242 36.367 34.5242 35.8065Z" fill="url(#paint9_linear_407_380)"/>
<path d="M32.4433 30.7827C32.0469 30.3863 32.0469 29.7437 32.4433 29.3473L34.3571 27.4335C34.7535 27.0371 35.3961 27.0371 35.7924 27.4335C36.1888 27.8299 36.1888 28.4725 35.7924 28.8689L33.8786 30.7827C33.4823 31.179 32.8396 31.179 32.4433 30.7827Z" fill="url(#paint10_linear_407_380)"/>
<path d="M22.3958 40.7863C22.7922 41.1827 22.7922 41.8253 22.3958 42.2217L20.482 44.1355C20.0856 44.5318 19.443 44.5318 19.0467 44.1355C18.6503 43.7391 18.6503 43.0965 19.0467 42.7001L20.9605 40.7863C21.3568 40.3899 21.9995 40.3899 22.3958 40.7863Z" fill="url(#paint11_linear_407_380)"/>
<path fill-rule="evenodd" clip-rule="evenodd" d="M51.0025 62.64C50.5126 61.7469 49.2296 61.7469 48.7397 62.6401L46.0991 67.455L44.5145 66.2125C43.7361 65.6022 42.6087 66.1138 42.4958 67.1287L41.3365 77.5513C41.3279 77.6288 41.3257 77.7047 41.3294 77.7787C41.3037 78.0635 41.2905 78.3521 41.2905 78.644C41.2905 83.633 45.1322 87.6775 49.8712 87.6775C54.6101 87.6775 58.4518 83.633 58.4518 78.644C58.4518 78.1255 58.4103 77.6172 58.3306 77.1225L57.2151 67.0936C57.1028 66.0839 56.0016 65.5842 55.2272 66.1914L53.6348 67.44L51.0025 62.64ZM49.0598 72.66C49.3497 72.1491 50.0744 72.1491 50.3643 72.66L53.2323 77.7153C53.245 77.7378 53.2565 77.7605 53.2668 77.7834C53.6853 78.4497 53.9278 79.2414 53.9278 80.0908C53.9278 82.4603 52.0404 84.3811 49.7121 84.3811C47.3838 84.3811 45.4963 82.4603 45.4963 80.0908C45.4963 79.2416 45.7388 78.45 46.1571 77.7838C46.1674 77.7607 46.179 77.7379 46.1918 77.7153L49.0598 72.66Z" fill="url(#paint12_linear_407_380)"/>
<path d="M49.2451 11.5386C49.4109 10.7918 50.1008 10.2768 50.8699 10.3254C51.6493 10.3748 52.2722 10.9878 52.3283 11.7606L54.354 39.7155C54.3847 40.1381 54.3407 40.5491 54.2333 40.9355C53.9602 40.7683 53.6757 40.6133 53.3808 40.4712C50.9184 39.2856 48.1949 39.2455 45.8236 40.1401L44.5456 38.4071C43.9279 37.5696 43.7029 36.5092 43.928 35.4956L49.2451 11.5386Z" fill="#469C5F"/>
<path d="M43.9226 46.437C42.5038 49.3375 43.7236 52.8297 46.647 54.2373C49.5704 55.6449 53.0905 54.4347 54.5092 51.5344C55.9281 48.634 54.7082 45.1417 51.7848 43.7341C48.8614 42.3265 45.3413 43.5367 43.9226 46.437Z" fill="#469C5F"/>
<path d="M39.7097 49.7934C39.4348 49.8931 39.1675 50.0275 38.9142 50.1977L15.525 65.9157C14.8785 66.3502 14.6547 67.1919 15.0015 67.8862C15.3436 68.5714 16.1381 68.9066 16.8727 68.6756L40.4438 61.2656C41.441 60.9521 42.2541 60.2286 42.6763 59.2791L43.7911 56.7723C41.403 55.1391 39.9503 52.5484 39.7097 49.7934Z" fill="#469C5F"/>
<path d="M82.8357 65.9353C83.4046 66.451 83.5093 67.3014 83.0823 67.9378C82.6495 68.5828 81.8029 68.8115 81.1003 68.4732L55.6854 56.2363C55.6146 56.2023 55.5457 56.1663 55.4782 56.1284C56.4214 55.3153 57.218 54.3037 57.7982 53.1179C58.4819 51.72 58.7879 50.2371 58.7553 48.7836L61.7316 48.4632C62.7715 48.3512 63.8097 48.6882 64.5819 49.3881L82.8357 65.9353Z" fill="#469C5F"/>
<defs>
<linearGradient id="paint0_linear_407_380" x1="19.2894" y1="60.1052" x2="75.5497" y2="60.1052" gradientUnits="userSpaceOnUse">
<stop stop-color="#E4D444"/>
<stop offset="1" stop-color="#51A15B"/>
</linearGradient>
<linearGradient id="paint1_linear_407_380" x1="19.2894" y1="60.1052" x2="75.5497" y2="60.1052" gradientUnits="userSpaceOnUse">
<stop stop-color="#E4D444"/>
<stop offset="1" stop-color="#51A15B"/>
</linearGradient>
<linearGradient id="paint2_linear_407_380" x1="19.2894" y1="60.1052" x2="75.5497" y2="60.1052" gradientUnits="userSpaceOnUse">
<stop stop-color="#E4D444"/>
<stop offset="1" stop-color="#51A15B"/>
</linearGradient>
<linearGradient id="paint3_linear_407_380" x1="19.2894" y1="60.1052" x2="75.5497" y2="60.1052" gradientUnits="userSpaceOnUse">
<stop stop-color="#E4D444"/>
<stop offset="1" stop-color="#51A15B"/>
</linearGradient>
<linearGradient id="paint4_linear_407_380" x1="19.2894" y1="60.1052" x2="75.5497" y2="60.1052" gradientUnits="userSpaceOnUse">
<stop stop-color="#E4D444"/>
<stop offset="1" stop-color="#51A15B"/>
</linearGradient>
<linearGradient id="paint5_linear_407_380" x1="19.2894" y1="60.1052" x2="75.5497" y2="60.1052" gradientUnits="userSpaceOnUse">
<stop stop-color="#E4D444"/>
<stop offset="1" stop-color="#51A15B"/>
</linearGradient>
<linearGradient id="paint6_linear_407_380" x1="19.2894" y1="60.1052" x2="75.5497" y2="60.1052" gradientUnits="userSpaceOnUse">
<stop stop-color="#E4D444"/>
<stop offset="1" stop-color="#51A15B"/>
</linearGradient>
<linearGradient id="paint7_linear_407_380" x1="19.2894" y1="60.1052" x2="75.5497" y2="60.1052" gradientUnits="userSpaceOnUse">
<stop stop-color="#E4D444"/>
<stop offset="1" stop-color="#51A15B"/>
</linearGradient>
<linearGradient id="paint8_linear_407_380" x1="19.2894" y1="60.1052" x2="75.5497" y2="60.1052" gradientUnits="userSpaceOnUse">
<stop stop-color="#E4D444"/>
<stop offset="1" stop-color="#51A15B"/>
</linearGradient>
<linearGradient id="paint9_linear_407_380" x1="19.2894" y1="60.1052" x2="75.5497" y2="60.1052" gradientUnits="userSpaceOnUse">
<stop stop-color="#E4D444"/>
<stop offset="1" stop-color="#51A15B"/>
</linearGradient>
<linearGradient id="paint10_linear_407_380" x1="19.2894" y1="60.1052" x2="75.5497" y2="60.1052" gradientUnits="userSpaceOnUse">
<stop stop-color="#E4D444"/>
<stop offset="1" stop-color="#51A15B"/>
</linearGradient>
<linearGradient id="paint11_linear_407_380" x1="19.2894" y1="60.1052" x2="75.5497" y2="60.1052" gradientUnits="userSpaceOnUse">
<stop stop-color="#E4D444"/>
<stop offset="1" stop-color="#51A15B"/>
</linearGradient>
<linearGradient id="paint12_linear_407_380" x1="19.2894" y1="60.1052" x2="75.5497" y2="60.1052" gradientUnits="userSpaceOnUse">
<stop stop-color="#E4D444"/>
<stop offset="1" stop-color="#51A15B"/>
</linearGradient>
</defs>
</svg>
