<svg width="25" height="24" viewBox="0 0 25 24" fill="none" xmlns="http://www.w3.org/2000/svg">
<path d="M18.8955 9.37297C18.8955 14.5495 14.7775 18.7459 9.69774 18.7459C4.61797 18.7459 0.5 14.5495 0.5 9.37297C0.5 4.19642 4.61797 0 9.69774 0C14.7775 0 18.8955 4.19642 18.8955 9.37297ZM2.73335 9.37297C2.73335 13.2926 5.85141 16.47 9.69774 16.47C13.5441 16.47 16.6621 13.2926 16.6621 9.37297C16.6621 5.45337 13.5441 2.2759 9.69774 2.2759C5.85141 2.2759 2.73335 5.45337 2.73335 9.37297Z" fill="#2D3D2F"/>
<path d="M15.1409 16.7257C14.5277 16.1008 14.5277 15.0876 15.1409 14.4626C15.7542 13.8377 16.7485 13.8377 17.3617 14.4626L24.0401 21.2682C24.6533 21.8931 24.6533 22.9064 24.0401 23.5313C23.4268 24.1562 22.4325 24.1562 21.8193 23.5313L15.1409 16.7257Z" fill="#2D3D2F"/>
</svg>
