<svg width="26" height="39" viewBox="0 0 26 39" fill="none" xmlns="http://www.w3.org/2000/svg">
<path fill-rule="evenodd" clip-rule="evenodd" d="M10.2916 14.6518C11.0933 14.1338 12.0358 13.8573 13 13.8573C14.2925 13.8587 15.5316 14.3559 16.4455 15.2397C17.3594 16.1235 17.8735 17.3217 17.875 18.5716C17.875 19.504 17.5891 20.4155 17.0534 21.1907C16.5177 21.966 15.7564 22.5702 14.8656 22.927C13.9748 23.2838 12.9946 23.3772 12.0489 23.1953C11.1033 23.0134 10.2346 22.5644 9.55285 21.9051C8.87107 21.2458 8.40678 20.4058 8.21867 19.4913C8.03057 18.5768 8.12711 17.6289 8.49609 16.7675C8.86507 15.9061 9.48991 15.1698 10.2916 14.6518ZM11.6458 20.5315C12.0466 20.7905 12.5179 20.9287 13 20.9287C13.6462 20.928 14.2658 20.6794 14.7227 20.2376C15.1797 19.7957 15.4368 19.1965 15.4375 18.5716C15.4375 18.1054 15.2945 17.6497 15.0267 17.262C14.7589 16.8744 14.3782 16.5723 13.9328 16.3939C13.4874 16.2155 12.9973 16.1688 12.5245 16.2597C12.0516 16.3507 11.6173 16.5752 11.2764 16.9048C10.9355 17.2345 10.7034 17.6545 10.6093 18.1117C10.5153 18.569 10.5636 19.0429 10.748 19.4736C10.9325 19.9043 11.245 20.2725 11.6458 20.5315Z" fill="#2EAA1A"/>
<path fill-rule="evenodd" clip-rule="evenodd" d="M13.6756 6.01655C16.8852 6.17399 19.9193 7.44762 22.1922 9.59163C24.3006 11.5809 25.6202 14.1936 25.9297 16.9916C26.2393 19.7897 25.5201 22.6032 23.8926 24.9604L14.8545 38.0513C14.6534 38.3426 14.3784 38.5819 14.0545 38.7476C13.7305 38.9132 13.3679 39 12.9994 39C12.631 39 12.2683 38.9132 11.9444 38.7476C11.6205 38.5819 11.3455 38.3426 11.1443 38.0513L2.10661 24.9604C0.352646 22.4193 -0.341531 19.3553 0.158057 16.3596C0.657646 13.364 2.31559 10.6492 4.81189 8.73911C7.30819 6.82904 10.4659 5.85912 13.6756 6.01655ZM12.9995 36.6033L21.8884 23.7285C24.6093 19.7875 24.0258 14.5134 20.5009 11.1875C19.5158 10.258 18.3463 9.52068 17.0592 9.01765C15.7721 8.51462 14.3926 8.25571 12.9995 8.25571C11.6063 8.25571 10.2268 8.51462 8.93974 9.01765C7.65264 9.52068 6.48316 10.258 5.49807 11.1875C1.97319 14.5134 1.38962 19.7875 4.1105 23.7285L12.9995 36.6033Z" fill="#2EAA1A"/>
</svg>
