<svg width="23" height="21" viewBox="0 0 23 21" fill="none" xmlns="http://www.w3.org/2000/svg">
    <path d="M0 16.7363C0 17.7972 0.403868 18.8146 1.12276 19.5648C1.84165 20.3149 2.81667 20.7363 3.83333 20.7363H19.1667C20.1833 20.7363 21.1584 20.3149 21.8772 19.5648C22.5961 18.8146 23 17.7972 23 16.7363V4.73633C23 3.67546 22.5961 2.65805 21.8772 1.9079C21.1584 1.15776 20.1833 0.736328 19.1667 0.736328H3.83333C2.81667 0.736328 1.84165 1.15776 1.12276 1.9079C0.403868 2.65805 0 3.67546 0 4.73633V16.7363ZM3.83333 2.73633H19.1667C19.675 2.73633 20.1625 2.94704 20.522 3.32211C20.8814 3.69719 21.0833 4.2059 21.0833 4.73633V6.21633L11.5 11.6003L1.91667 6.21633V4.73633C1.91667 4.2059 2.1186 3.69719 2.47805 3.32211C2.83749 2.94704 3.325 2.73633 3.83333 2.73633ZM1.91667 8.48833L11.0457 13.6163C11.1854 13.6948 11.3414 13.7358 11.5 13.7358C11.6586 13.7358 11.8146 13.6948 11.9543 13.6163L21.0833 8.48833V16.7363C21.0833 17.2668 20.8814 17.7755 20.522 18.1505C20.1625 18.5256 19.675 18.7363 19.1667 18.7363H3.83333C3.325 18.7363 2.83749 18.5256 2.47805 18.1505C2.1186 17.7755 1.91667 17.2668 1.91667 16.7363V8.48833Z"
          fill="#2D3D2F"/>
</svg>
