<svg width="26" height="24" viewBox="0 0 26 24" fill="none" xmlns="http://www.w3.org/2000/svg">
<path d="M0 18.9C0 20.12 0.456546 21.29 1.2692 22.1527C2.08186 23.0154 3.18406 23.5 4.33333 23.5H21.6667C22.8159 23.5 23.9181 23.0154 24.7308 22.1527C25.5435 21.29 26 20.12 26 18.9V5.1C26 3.88 25.5435 2.70998 24.7308 1.84731C23.9181 0.984641 22.8159 0.5 21.6667 0.5H4.33333C3.18406 0.5 2.08186 0.984641 1.2692 1.84731C0.456546 2.70998 0 3.88 0 5.1V18.9ZM4.33333 2.8H21.6667C22.2413 2.8 22.7924 3.04232 23.1987 3.47365C23.6051 3.90499 23.8333 4.49 23.8333 5.1V6.802L13 12.9936L2.16667 6.802V5.1C2.16667 4.49 2.39494 3.90499 2.80127 3.47365C3.2076 3.04232 3.7587 2.8 4.33333 2.8ZM2.16667 9.4148L12.4865 15.312C12.6443 15.4022 12.8208 15.4494 13 15.4494C13.1792 15.4494 13.3557 15.4022 13.5135 15.312L23.8333 9.4148V18.9C23.8333 19.51 23.6051 20.095 23.1987 20.5263C22.7924 20.9577 22.2413 21.2 21.6667 21.2H4.33333C3.7587 21.2 3.2076 20.9577 2.80127 20.5263C2.39494 20.095 2.16667 19.51 2.16667 18.9V9.4148Z" fill="#2EAA1A"/>
</svg>
