<svg width="20" height="34" viewBox="0 0 20 34" fill="none" xmlns="http://www.w3.org/2000/svg">
<path d="M8 25.5C7.73478 25.5 7.48043 25.6119 7.29289 25.8112C7.10536 26.0105 7 26.2807 7 26.5625C7 26.8443 7.10536 27.1145 7.29289 27.3138C7.48043 27.5131 7.73478 27.625 8 27.625H12C12.2652 27.625 12.5196 27.5131 12.7071 27.3138C12.8946 27.1145 13 26.8443 13 26.5625C13 26.2807 12.8946 26.0105 12.7071 25.8112C12.5196 25.6119 12.2652 25.5 12 25.5H8ZM4 0C2.93913 0 1.92172 0.447766 1.17157 1.2448C0.421427 2.04183 0 3.12283 0 4.25V29.75C0 30.8772 0.421427 31.9582 1.17157 32.7552C1.92172 33.5522 2.93913 34 4 34H16C17.0609 34 18.0783 33.5522 18.8284 32.7552C19.5786 31.9582 20 30.8772 20 29.75V4.25C20 3.12283 19.5786 2.04183 18.8284 1.2448C18.0783 0.447766 17.0609 0 16 0H4ZM2 4.25C2 3.68641 2.21071 3.14591 2.58579 2.7474C2.96086 2.34888 3.46957 2.125 4 2.125H16C16.5304 2.125 17.0391 2.34888 17.4142 2.7474C17.7893 3.14591 18 3.68641 18 4.25V29.75C18 30.3136 17.7893 30.8541 17.4142 31.2526C17.0391 31.6511 16.5304 31.875 16 31.875H4C3.46957 31.875 2.96086 31.6511 2.58579 31.2526C2.21071 30.8541 2 30.3136 2 29.75V4.25Z" fill="#2EAA1A"/>
</svg>
