<svg width="97" height="138" viewBox="0 0 97 138" fill="none" xmlns="http://www.w3.org/2000/svg">
<path d="M47.0001 0C56.7334 0 65.0668 1.73333 72.0001 5.2C79.0668 8.66667 84.4001 13.3333 88.0001 19.2C91.7334 25.0667 93.6001 31.5333 93.6001 38.6C93.6001 45.8 92.1334 52.6667 89.2001 59.2C86.2668 65.7333 81.0668 73.2667 73.6001 81.8C66.1334 90.2 55.2668 100.867 41.0001 113.8H96.4001L93.2001 138H5.2001V115.6C21.6001 99.4667 33.5334 87.3333 41.0001 79.2C48.4668 70.9333 53.6668 64.0667 56.6001 58.6C59.6668 53.1333 61.2001 47.5333 61.2001 41.8C61.2001 36.3333 59.6001 32.0667 56.4001 29C53.3334 25.8 49.1334 24.2 43.8001 24.2C39.0001 24.2 34.7334 25.3333 31.0001 27.6C27.2668 29.7333 23.3334 33.2667 19.2001 38.2L0.600098 23.4C6.2001 16.0667 12.8668 10.3333 20.6001 6.2C28.4668 2.06667 37.2668 0 47.0001 0Z" fill="#57C923"/>
</svg>
