<svg width="99" height="142" viewBox="0 0 99 142" fill="none" xmlns="http://www.w3.org/2000/svg">
<path d="M49.1 0.300049C58.5667 0.300049 66.6333 1.83338 73.3 4.90005C80.1 7.96672 85.2333 12.1001 88.7 17.3001C92.3 22.5001 94.1 28.3001 94.1 34.7001C94.1 42.8334 91.7667 49.6334 87.1 55.1001C82.5667 60.5667 76.1 64.5001 67.7 66.9001C76.7667 67.8334 84.1667 71.1001 89.9 76.7001C95.6333 82.1667 98.5 89.9667 98.5 100.1C98.5 107.7 96.5 114.7 92.5 121.1C88.5 127.367 82.5667 132.367 74.7 136.1C66.9667 139.833 57.7 141.7 46.9 141.7C27.1667 141.7 11.7 134.9 0.5 121.3L17.5 104.7C22.0333 109.233 26.4333 112.567 30.7 114.7C35.1 116.7 39.9 117.7 45.1 117.7C51.3667 117.7 56.4333 115.967 60.3 112.5C64.1667 109.033 66.1 104.233 66.1 98.1001C66.1 91.1667 64.2333 86.2334 60.5 83.3001C56.9 80.2334 51.4333 78.7001 44.1 78.7001H32.9L36.3 56.9001H44.1C50.1 56.9001 54.8333 55.3667 58.3 52.3001C61.7667 49.2334 63.5 44.9001 63.5 39.3001C63.5 34.3667 61.9 30.5667 58.7 27.9001C55.5 25.1001 51.1 23.7001 45.5 23.7001C36.0333 23.7001 27.2333 27.6334 19.1 35.5001L3.5 18.5001C16.3 6.36672 31.5 0.300049 49.1 0.300049Z" fill="#2EAA1A"/>
</svg>
