<svg width="350" height="713" viewBox="0 0 350 713" fill="none" xmlns="http://www.w3.org/2000/svg">
<path fill-rule="evenodd" clip-rule="evenodd" d="M0 3.5C0 1.567 1.567 0 3.5 0C5.433 0 7 1.56699 7 3.49999V319C7 321.209 8.79087 323 11 323H343H346C348.209 323 350 324.791 350 327V330V517V520C350 522.209 348.209 524 346 524H343H11C8.79086 524 7 525.791 7 528V709.5C7 711.433 5.433 713 3.5 713C1.567 713 0 711.433 0 709.5V524V521C0 518.791 1.79086 517 4 517H7H339C341.209 517 343 515.209 343 513V334C343 331.791 341.209 330 339 330L7 330H4C1.79086 330 0 328.209 0 326V323V3.5Z" fill="url(#paint0_linear_93_1231)"/>
<defs>
<linearGradient id="paint0_linear_93_1231" x1="150.5" y1="-7.49995" x2="507.762" y2="332.111" gradientUnits="userSpaceOnUse">
<stop stop-color="#CCEC06"/>
<stop offset="0.285309" stop-color="#69D826"/>
<stop offset="0.989583" stop-color="#2EAA1A"/>
</linearGradient>
</defs>
</svg>
