<svg width="40" height="41" viewBox="0 0 40 41" fill="none" xmlns="http://www.w3.org/2000/svg">
<path fill-rule="evenodd" clip-rule="evenodd" d="M30.2273 40.7363C32.8866 40.7363 35.2555 39.7498 37.1345 37.8708C39.0135 35.9918 40 33.6229 40 30.9636V10.5091C40 7.84973 39.0135 5.48082 37.1345 3.60182C35.2555 1.72282 32.8866 0.736328 30.2273 0.736328H9.77273C7.1134 0.736328 4.74449 1.72282 2.86549 3.60182C0.986491 5.48082 0 7.84973 0 10.5091V30.9636C0 33.6229 0.986491 35.9918 2.86549 37.8708C4.74449 39.7498 7.1134 40.7363 9.77273 40.7363H30.2273ZM30.4616 24.4224H26.2216V37.1H30.2273C31.9176 37.1 33.3629 36.4998 34.5632 35.2995C35.7635 34.0993 36.3636 32.6539 36.3636 30.9636V10.5091C36.3636 8.98899 35.8783 7.66707 34.9077 6.54331C34.8443 6.46996 34.7789 6.39746 34.7114 6.3258C34.6631 6.27447 34.6137 6.22358 34.5632 6.17312C33.3629 4.97283 31.9176 4.37269 30.2273 4.37269H9.77273C8.08239 4.37269 6.63707 4.97283 5.43679 6.17312C4.23651 7.3734 3.63636 8.81871 3.63636 10.5091V30.9636C3.63636 32.6539 4.23651 34.0993 5.43679 35.2995C6.63707 36.4998 8.08239 37.1 9.77273 37.1H21.108V24.4224H16.8466V19.4792H21.108V15.8358C21.108 13.7619 21.6868 12.1568 22.8445 11.0204C24.0021 9.88406 25.5469 9.31587 27.4787 9.31587C29.1122 9.31587 30.3764 9.37979 31.2713 9.50763V13.9181L28.6719 13.9395C27.706 13.9395 27.0561 14.1383 26.7223 14.536C26.4599 14.8487 26.3006 15.2843 26.2445 15.8429C26.2292 15.9948 26.2216 16.1557 26.2216 16.3258V19.4792H31.1009L30.4616 24.4224Z" fill="#2D3D2F"/>
</svg>
