<svg width="18" height="24" viewBox="0 0 18 24" fill="none" xmlns="http://www.w3.org/2000/svg">
<path fill-rule="evenodd" clip-rule="evenodd" d="M9.4677 0.251597C11.6898 0.364308 13.7903 1.27611 15.3639 2.81103C16.8235 4.23518 17.737 6.1056 17.9513 8.10877C18.1657 10.1119 17.6677 12.1261 16.541 13.8137L10.2839 23.1855C10.1447 23.3941 9.95429 23.5654 9.73003 23.684C9.50576 23.8026 9.25471 23.8647 8.99962 23.8647C8.74453 23.8647 8.49347 23.8026 8.2692 23.684C8.04494 23.5654 7.85456 23.3941 7.71532 23.1855L1.45842 13.8137C0.244139 11.9945 -0.236445 9.8009 0.109424 7.65631C0.455294 5.51172 1.6031 3.56815 3.33131 2.2007C5.05952 0.833261 7.24562 0.138887 9.4677 0.251597ZM8.99964 22.149L15.1535 12.9317C17.0372 10.1103 16.6332 6.33458 14.1929 3.9535C13.5109 3.28808 12.7013 2.76024 11.8102 2.40011C10.9192 2.03999 9.96413 1.85463 8.99964 1.85463C8.03516 1.85463 7.08011 2.03999 6.18905 2.40011C5.29798 2.76024 4.48834 3.28808 3.80636 3.9535C1.36605 6.33458 0.962042 10.1103 2.84573 12.9317L8.99964 22.149ZM7.12495 6.43367C7.67997 6.06282 8.33249 5.86488 9 5.86488C9.89479 5.86589 10.7526 6.2218 11.3854 6.85452C12.0181 7.48723 12.374 8.34508 12.375 9.23987C12.375 9.90739 12.1771 10.5599 11.8062 11.1149C11.4354 11.6699 10.9083 12.1025 10.2916 12.358C9.67486 12.6134 8.99626 12.6803 8.34157 12.55C7.68689 12.4198 7.08552 12.0984 6.61352 11.6264C6.14151 11.1544 5.82008 10.553 5.68985 9.8983C5.55963 9.24362 5.62646 8.56502 5.88191 7.94832C6.13735 7.33162 6.56994 6.80452 7.12495 6.43367ZM8.06248 10.643C8.33998 10.8284 8.66625 10.9274 9 10.9274C9.4474 10.9269 9.87632 10.7489 10.1927 10.4325C10.509 10.1162 10.687 9.68727 10.6875 9.23987C10.6875 8.90612 10.5885 8.57986 10.4031 8.30235C10.2177 8.02484 9.95413 7.80855 9.64578 7.68083C9.33743 7.55311 8.99813 7.51969 8.67079 7.5848C8.34344 7.64991 8.04276 7.81063 7.80676 8.04663C7.57076 8.28263 7.41004 8.58332 7.34493 8.91066C7.27981 9.238 7.31323 9.5773 7.44095 9.88565C7.56868 10.194 7.78497 10.4576 8.06248 10.643Z" fill="#2D3D2F"/>
</svg>
