<svg width="18" height="31" viewBox="0 0 18 31" fill="none" xmlns="http://www.w3.org/2000/svg">
    <path d="M7.2 23.2363C6.96131 23.2363 6.73239 23.3351 6.5636 23.5109C6.39482 23.6867 6.3 23.9252 6.3 24.1738C6.3 24.4225 6.39482 24.6609 6.5636 24.8367C6.73239 25.0126 6.96131 25.1113 7.2 25.1113H10.8C11.0387 25.1113 11.2676 25.0126 11.4364 24.8367C11.6052 24.6609 11.7 24.4225 11.7 24.1738C11.7 23.9252 11.6052 23.6867 11.4364 23.5109C11.2676 23.3351 11.0387 23.2363 10.8 23.2363H7.2ZM3.6 0.736328C2.64522 0.736328 1.72955 1.13142 1.05442 1.83468C0.379284 2.53794 0 3.49177 0 4.48633V26.9863C0 27.9809 0.379284 28.9347 1.05442 29.638C1.72955 30.3412 2.64522 30.7363 3.6 30.7363H14.4C15.3548 30.7363 16.2705 30.3412 16.9456 29.638C17.6207 28.9347 18 27.9809 18 26.9863V4.48633C18 3.49177 17.6207 2.53794 16.9456 1.83468C16.2705 1.13142 15.3548 0.736328 14.4 0.736328H3.6ZM1.8 4.48633C1.8 3.98905 1.98964 3.51213 2.32721 3.1605C2.66477 2.80887 3.12261 2.61133 3.6 2.61133H14.4C14.8774 2.61133 15.3352 2.80887 15.6728 3.1605C16.0104 3.51213 16.2 3.98905 16.2 4.48633V26.9863C16.2 27.4836 16.0104 27.9605 15.6728 28.3122C15.3352 28.6638 14.8774 28.8613 14.4 28.8613H3.6C3.12261 28.8613 2.66477 28.6638 2.32721 28.3122C1.98964 27.9605 1.8 27.4836 1.8 26.9863V4.48633Z"
          fill="#2D3D2F"/>
</svg>
