<svg width="46" height="41" viewBox="0 0 46 41" fill="none" xmlns="http://www.w3.org/2000/svg">
<path fill-rule="evenodd" clip-rule="evenodd" d="M4.08766 14.5502L4.13582 14.5311L38.2905 1.23078C40.1206 0.442929 42.5593 0.475708 44.3485 2.2221C46.0781 3.91034 46.2368 6.26188 45.7825 8.1725L39.9676 35.8465C39.9672 35.8488 39.9667 35.8512 39.9662 35.8535C39.6668 37.2975 38.8688 39.3069 36.7509 40.2697C34.6251 41.236 32.5777 40.5093 31.3363 39.819C31.193 39.7393 31.0553 39.6502 30.924 39.5523L24.5927 34.8297L22.5783 36.8078C22.5655 36.8202 22.5496 36.836 22.5307 36.8548C22.3351 37.0489 21.8195 37.5607 21.1679 37.9535C20.2982 38.4778 19.3109 38.7521 18.2158 38.7521C17.1979 38.7521 16.2256 38.3356 15.5298 37.6016C14.834 36.8676 14.4769 35.8816 14.5434 34.8781L15.0679 26.9627C14.3194 27.2233 13.4976 27.2403 12.7269 26.9975L3.94567 24.2313C3.15432 23.985 2.21989 23.5658 1.43842 22.8195C0.590822 22.01 -0.13759 20.7216 0.02214 19.1184C0.169219 17.6421 1.00521 16.5983 1.69881 15.9789C2.41189 15.3421 3.25911 14.8863 4.08766 14.5502ZM5.05663 20.7645L13.8448 23.533L34.1781 10.5777C34.3647 10.4631 34.5481 10.3827 34.7174 10.3323C34.7198 10.3315 34.7223 10.3308 34.7248 10.33C34.8871 10.2824 35.036 10.2624 35.1619 10.2663C35.5779 10.2791 35.7412 10.553 35.296 10.9521L18.822 25.9661H18.8181L18.822 25.9681L18.2158 35.1157C19.0754 35.1157 19.4702 34.7302 19.9463 34.2652C19.9621 34.2499 19.9779 34.2344 19.9939 34.2189L24.2625 30.0272L33.1414 36.6501C34.7786 37.5605 35.9543 37.0926 36.3617 35.1196L42.1902 7.38036C42.7868 4.96477 41.277 3.87103 39.7152 4.5846L5.48523 17.9142C3.14918 18.8617 3.16269 20.1777 5.05663 20.7645Z" fill="#2D3D2F"/>
</svg>
